<?xml version="1.0" encoding="UTF-8"?>
<svg id="Layer_2" data-name="Layer 2" xmlns="http://www.w3.org/2000/svg" viewBox="0 0 300.1 272.85">
  <defs>
    <style>
      .cls-1 {
        fill: currentColor;
	opacity:1;
      }
    </style>
  </defs>
  <g id="Layer_5" data-name="Layer 5">
    <path class="cls-1" d="M262.77,260.82c-13.22,2.85-26.24-5.56-29.08-18.78l-1.94-9c-7.11-33.03-26.13-62.22-34.99-65.03-25.19-7.99-86.3-5.47-118.91-2.01l-33.5,3.56-7.11-67,33.5-3.56c10.07-1.07,99.72-10.02,146.39,4.79,47.19,14.97,72.79,79.37,80.47,115.06l1.94,9c2.85,13.22-5.56,26.24-18.78,29.08l-18,3.88Z"/>
    <path class="cls-1" d="M17.45,163.7l-10.61-10.69c-9.21-9.27-9.11-24.27.23-33.41L122.29,6.75c14.06-13.77,37.8-5.24,39.88,14.32l1.89,17.75c.76,7.1-1.75,14.16-6.82,19.2l-106.5,105.78c-9.22,9.16-24.13,9.11-33.29-.11Z"/>
    <path class="cls-1" d="M117.14,263.86L14.24,160.43c-11.83-11.89-11.77-31.11.13-42.93l1.13-1.12c11.89-11.81,31.1-11.75,42.91.14l101.83,102.52c5.9,5.94,9.08,14.04,8.8,22.4l-.07,2.03c-.89,26.57-33.09,39.23-51.84,20.39Z"/>
  </g>
</svg>