<?xml version="1.0" encoding="UTF-8"?>
<svg id="Layer_2" data-name="Layer 2" xmlns="http://www.w3.org/2000/svg" viewBox="0 0 302.76 227.59">
  <defs>
    <style>
      .cls-1 {
        fill: currentColor;
      }

      .cls-2 {
        fill: none;
        stroke: currentColor;
        stroke-miterlimit: 10;
        stroke-width: 11px;
      }
    </style>
  </defs>
  <g id="Layer_2-2" data-name="Layer 2">
    <g>
      <path class="cls-1" d="M297.26,39.21v163.97c0,10.44-8.46,18.91-18.91,18.91H24.41c-10.44,0-18.91-8.47-18.91-18.91V39.21C5.5,20.59,20.59,5.5,39.2,5.5h224.36c18.61,0,33.7,15.09,33.7,33.71ZM213.79,114.52v-1.45c0-34.46-27.94-62.4-62.41-62.4-17.23,0-32.83,6.98-44.12,18.28-11.29,11.29-18.28,26.89-18.28,44.12v1.45c0,34.46,27.94,62.4,62.4,62.4s62.41-27.94,62.41-62.4Z"/>
      <g>
        <path class="cls-2" d="M24.41,222.09h253.94c10.45,0,18.91-8.47,18.91-18.91V39.21c0-18.62-15.09-33.71-33.7-33.71H39.2C20.59,5.5,5.5,20.59,5.5,39.21v163.97c0,10.44,8.47,18.91,18.91,18.91Z"/>
        <path class="cls-2" d="M151.38,176.92c34.47,0,62.41-27.94,62.41-62.4v-1.45c0-34.46-27.94-62.4-62.41-62.4-17.23,0-32.83,6.98-44.12,18.28-11.29,11.29-18.28,26.89-18.28,44.12v1.45c0,34.46,27.94,62.4,62.4,62.4Z"/>
      </g>
    </g>
  </g>
</svg>