<?xml version="1.0" encoding="UTF-8"?>
<svg id="Layer_2" data-name="Layer 2" xmlns="http://www.w3.org/2000/svg" viewBox="0 0 271.55 295.29">
  <g id="Layer_6" data-name="Layer 6">
    <path d="M14.29,0C5.63,0-1.04,7.65.14,16.23l36.81,268.08c.86,6.29,6.24,10.98,12.59,10.98h86.24V0H14.29ZM105.66,248.41c0,11.05-8.95,20-20,20s-20-8.95-20-20V41.04c0-11.05,8.95-20,20-20s20,8.95,20,20v207.38Z"/>
    <path d="M257.26,0h-121.49v295.29h86.24c6.35,0,11.72-4.69,12.59-10.98L271.42,16.23c1.18-8.58-5.49-16.23-14.16-16.23ZM200,249.43c0,11.05-8.95,20-20,20s-20-8.95-20-20V42.05c0-11.05,8.95-20,20-20s20,8.95,20,20v207.38Z"/>
  </g>
</svg>